<?xml version="1.0" encoding="UTF-8"?>
<svg width="300" height="200" viewBox="0 0 300 200" fill="none" xmlns="http://www.w3.org/2000/svg">
  <!-- Background -->
  <rect width="300" height="200" fill="#f1f5f9" rx="8"/>
  
  <!-- Header Area -->
  <rect x="20" y="20" width="260" height="30" fill="#e2e8f0" rx="4"/>
  <rect x="30" y="30" width="100" height="10" fill="#94a3b8" rx="2"/>
  
  <!-- Product 1 -->
  <rect x="20" y="60" width="260" height="60" fill="#e2e8f0" rx="4"/>
  
  <!-- Product 1 Image -->
  <rect x="30" y="70" width="40" height="40" fill="#cbd5e1" rx="2"/>
  
  <!-- Product 1 Details -->
  <rect x="80" y="70" width="80" height="10" fill="#94a3b8" rx="2"/>
  
  <!-- Product 1 Features -->
  <rect x="80" y="90" width="8" height="8" fill="#94a3b8" rx="4"/>
  <rect x="95" y="90" width="60" height="8" fill="#94a3b8" rx="2"/>
  
  <rect x="80" y="100" width="8" height="8" fill="#94a3b8" rx="4"/>
  <rect x="95" y="100" width="40" height="8" fill="#94a3b8" rx="2"/>
  
  <!-- Product 1 Highlights -->
  <rect x="170" y="70" width="100" height="40" fill="#cbd5e1" rx="2" opacity="0.7"/>
  <rect x="180" y="80" width="80" height="8" fill="#94a3b8" rx="2"/>
  <rect x="180" y="95" width="60" height="8" fill="#94a3b8" rx="2"/>
  
  <!-- Product 2 -->
  <rect x="20" y="130" width="260" height="60" fill="#e2e8f0" rx="4"/>
  
  <!-- Product 2 Image -->
  <rect x="30" y="140" width="40" height="40" fill="#cbd5e1" rx="2"/>
  
  <!-- Product 2 Details -->
  <rect x="80" y="140" width="80" height="10" fill="#94a3b8" rx="2"/>
  
  <!-- Product 2 Features -->
  <rect x="80" y="160" width="8" height="8" fill="#94a3b8" rx="4"/>
  <rect x="95" y="160" width="60" height="8" fill="#94a3b8" rx="2"/>
  
  <rect x="80" y="170" width="8" height="8" fill="#94a3b8" rx="4"/>
  <rect x="95" y="170" width="40" height="8" fill="#94a3b8" rx="2"/>
  
  <!-- Product 2 Highlights -->
  <rect x="170" y="140" width="100" height="40" fill="#cbd5e1" rx="2" opacity="0.7"/>
  <rect x="180" y="150" width="80" height="8" fill="#94a3b8" rx="2"/>
  <rect x="180" y="165" width="60" height="8" fill="#94a3b8" rx="2"/>
</svg>