<?xml version="1.0" encoding="UTF-8"?>
<svg width="300" height="200" viewBox="0 0 300 200" fill="none" xmlns="http://www.w3.org/2000/svg">
  <!-- Background -->
  <rect width="300" height="200" fill="#f1f5f9" rx="8"/>
  
  <!-- Main Layout -->
  <rect x="20" y="20" width="260" height="160" fill="#e2e8f0" rx="4"/>
  
  <!-- Left Image Area -->
  <rect x="30" y="30" width="100" height="140" fill="#cbd5e1" rx="2"/>
  
  <!-- Right Content Area -->
  <rect x="145" y="30" width="125" height="20" fill="#94a3b8" rx="2"/>
  <rect x="145" y="60" width="100" height="10" fill="#94a3b8" rx="2"/>
  <rect x="145" y="75" width="90" height="10" fill="#94a3b8" rx="2"/>
  <rect x="145" y="90" width="110" height="10" fill="#94a3b8" rx="2"/>
  
  <!-- Features Area -->
  <rect x="145" y="115" width="8" height="8" fill="#94a3b8" rx="4"/>
  <rect x="160" y="115" width="70" height="8" fill="#94a3b8" rx="2"/>
  
  <rect x="145" y="130" width="8" height="8" fill="#94a3b8" rx="4"/>
  <rect x="160" y="130" width="80" height="8" fill="#94a3b8" rx="2"/>
  
  <rect x="145" y="145" width="8" height="8" fill="#94a3b8" rx="4"/>
  <rect x="160" y="145" width="60" height="8" fill="#94a3b8" rx="2"/>
  
  <!-- Price Tag -->
  <rect x="145" y="165" width="50" height="15" fill="#94a3b8" rx="2"/>
</svg>