<?xml version="1.0" encoding="UTF-8"?>
<svg width="300" height="200" viewBox="0 0 300 200" fill="none" xmlns="http://www.w3.org/2000/svg">
  <!-- Background -->
  <rect width="300" height="200" fill="#f1f5f9" rx="8"/>
  
  <!-- Title Bar -->
  <rect x="20" y="20" width="260" height="25" fill="#e2e8f0" rx="4"/>
  <rect x="30" y="27" width="70" height="10" fill="#94a3b8" rx="2"/>
  <rect x="160" y="27" width="30" height="10" fill="#94a3b8" rx="2"/>
  <rect x="230" y="27" width="40" height="10" fill="#94a3b8" rx="2"/>
  
  <!-- List Items -->
  <!-- Item 1 -->
  <rect x="20" y="55" width="260" height="20" fill="#e2e8f0" rx="4"/>
  <rect x="30" y="60" width="20" height="10" fill="#cbd5e1" rx="2"/>
  <rect x="60" y="60" width="70" height="10" fill="#94a3b8" rx="2"/>
  <rect x="160" y="60" width="30" height="10" fill="#94a3b8" rx="2"/>
  <rect x="230" y="60" width="40" height="10" fill="#94a3b8" rx="2"/>
  
  <!-- Item 2 -->
  <rect x="20" y="85" width="260" height="20" fill="#e2e8f0" rx="4"/>
  <rect x="30" y="90" width="20" height="10" fill="#cbd5e1" rx="2"/>
  <rect x="60" y="90" width="70" height="10" fill="#94a3b8" rx="2"/>
  <rect x="160" y="90" width="30" height="10" fill="#94a3b8" rx="2"/>
  <rect x="230" y="90" width="40" height="10" fill="#94a3b8" rx="2"/>
  
  <!-- Item 3 -->
  <rect x="20" y="115" width="260" height="20" fill="#e2e8f0" rx="4"/>
  <rect x="30" y="120" width="20" height="10" fill="#cbd5e1" rx="2"/>
  <rect x="60" y="120" width="70" height="10" fill="#94a3b8" rx="2"/>
  <rect x="160" y="120" width="30" height="10" fill="#94a3b8" rx="2"/>
  <rect x="230" y="120" width="40" height="10" fill="#94a3b8" rx="2"/>
  
  <!-- Item 4 -->
  <rect x="20" y="145" width="260" height="20" fill="#e2e8f0" rx="4"/>
  <rect x="30" y="150" width="20" height="10" fill="#cbd5e1" rx="2"/>
  <rect x="60" y="150" width="70" height="10" fill="#94a3b8" rx="2"/>
  <rect x="160" y="150" width="30" height="10" fill="#94a3b8" rx="2"/>
  <rect x="230" y="150" width="40" height="10" fill="#94a3b8" rx="2"/>
  
  <!-- Item 5 -->
  <rect x="20" y="175" width="260" height="20" fill="#e2e8f0" rx="4"/>
  <rect x="30" y="180" width="20" height="10" fill="#cbd5e1" rx="2"/>
  <rect x="60" y="180" width="70" height="10" fill="#94a3b8" rx="2"/>
  <rect x="160" y="180" width="30" height="10" fill="#94a3b8" rx="2"/>
  <rect x="230" y="180" width="40" height="10" fill="#94a3b8" rx="2"/>
</svg>