<?xml version="1.0" encoding="UTF-8"?>
<svg width="300" height="200" viewBox="0 0 300 200" fill="none" xmlns="http://www.w3.org/2000/svg">
  <!-- Grid Background -->
  <rect width="300" height="200" fill="#f1f5f9" rx="8"/>
  
  <!-- Grid Items -->
  <rect x="20" y="20" width="120" height="70" fill="#e2e8f0" rx="4"/>
  <rect x="160" y="20" width="120" height="70" fill="#e2e8f0" rx="4"/>
  <rect x="20" y="110" width="120" height="70" fill="#e2e8f0" rx="4"/>
  <rect x="160" y="110" width="120" height="70" fill="#e2e8f0" rx="4"/>
  
  <!-- Image Placeholders -->
  <rect x="30" y="30" width="40" height="40" fill="#cbd5e1" rx="2"/>
  <rect x="170" y="30" width="40" height="40" fill="#cbd5e1" rx="2"/>
  <rect x="30" y="120" width="40" height="40" fill="#cbd5e1" rx="2"/>
  <rect x="170" y="120" width="40" height="40" fill="#cbd5e1" rx="2"/>
  
  <!-- Text Elements -->
  <rect x="80" y="30" width="50" height="10" fill="#94a3b8" rx="2"/>
  <rect x="80" y="45" width="30" height="8" fill="#94a3b8" rx="2"/>
  <rect x="80" y="60" width="40" height="8" fill="#94a3b8" rx="2"/>
  
  <rect x="220" y="30" width="50" height="10" fill="#94a3b8" rx="2"/>
  <rect x="220" y="45" width="30" height="8" fill="#94a3b8" rx="2"/>
  <rect x="220" y="60" width="40" height="8" fill="#94a3b8" rx="2"/>
  
  <rect x="80" y="120" width="50" height="10" fill="#94a3b8" rx="2"/>
  <rect x="80" y="135" width="30" height="8" fill="#94a3b8" rx="2"/>
  <rect x="80" y="150" width="40" height="8" fill="#94a3b8" rx="2"/>
  
  <rect x="220" y="120" width="50" height="10" fill="#94a3b8" rx="2"/>
  <rect x="220" y="135" width="30" height="8" fill="#94a3b8" rx="2"/>
  <rect x="220" y="150" width="40" height="8" fill="#94a3b8" rx="2"/>
</svg>