<?xml version="1.0" encoding="UTF-8"?>
<svg width="200px" height="140px" viewBox="0 0 200 140" version="1.1" xmlns="http://www.w3.org/2000/svg" xmlns:xlink="http://www.w3.org/1999/xlink">
    <title>Premium Brochure Template</title>
    <g stroke="none" stroke-width="1" fill="none" fill-rule="evenodd">
        <rect stroke="#E0E0E0" stroke-width="2" fill="#FFFFFF" x="1" y="1" width="198" height="138" rx="6"></rect>
        <rect fill="#1A237E" x="10" y="10" width="180" height="40" rx="0"></rect>
        <rect fill="#FFFFFF" opacity="0.3" x="70" y="25" width="60" height="2" rx="1"></rect>
        <rect fill="#FFFFFF" opacity="0.3" x="50" y="30" width="100" height="2" rx="1"></rect>
        <rect fill="#FFFFFF" opacity="0.3" x="60" y="35" width="80" height="2" rx="1"></rect>
        <rect fill="#FFFFFF" opacity="0.3" x="75" y="42" width="50" height="1" rx="0.5"></rect>
        <rect fill="#1A237E" opacity="0.1" x="10" y="55" width="50" height="2" rx="1"></rect>
        <g transform="translate(10, 60)">
            <rect fill="#FFFFFF" stroke="#E0E0E0" stroke-width="1" x="0" y="0" width="85" height="30" rx="0"></rect>
            <rect fill="#F5F5F5" x="0" y="0" width="30" height="30"></rect>
            <rect fill="#1A237E" x="35" y="5" width="40" height="2" rx="1"></rect>
            <rect fill="#C2185B" x="35" y="10" width="20" height="2" rx="1"></rect>
            <rect fill="#555555" opacity="0.7" x="35" y="15" width="45" height="1" rx="0.5"></rect>
            <rect fill="#555555" opacity="0.7" x="35" y="18" width="45" height="1" rx="0.5"></rect>
            <rect fill="#555555" opacity="0.7" x="35" y="21" width="35" height="1" rx="0.5"></rect>
            
            <rect fill="#FFFFFF" stroke="#E0E0E0" stroke-width="1" x="95" y="0" width="85" height="30" rx="0"></rect>
            <rect fill="#F5F5F5" x="95" y="0" width="30" height="30"></rect>
            <rect fill="#1A237E" x="130" y="5" width="40" height="2" rx="1"></rect>
            <rect fill="#C2185B" x="130" y="10" width="20" height="2" rx="1"></rect>
            <rect fill="#555555" opacity="0.7" x="130" y="15" width="45" height="1" rx="0.5"></rect>
            <rect fill="#555555" opacity="0.7" x="130" y="18" width="45" height="1" rx="0.5"></rect>
            <rect fill="#555555" opacity="0.7" x="130" y="21" width="35" height="1" rx="0.5"></rect>
        </g>
        <g transform="translate(10, 95)">
            <rect fill="#FFFFFF" stroke="#E0E0E0" stroke-width="1" x="0" y="0" width="85" height="30" rx="0"></rect>
            <rect fill="#F5F5F5" x="0" y="0" width="30" height="30"></rect>
            <rect fill="#1A237E" x="35" y="5" width="40" height="2" rx="1"></rect>
            <rect fill="#C2185B" x="35" y="10" width="20" height="2" rx="1"></rect>
            <rect fill="#555555" opacity="0.7" x="35" y="15" width="45" height="1" rx="0.5"></rect>
            <rect fill="#555555" opacity="0.7" x="35" y="18" width="45" height="1" rx="0.5"></rect>
            <rect fill="#555555" opacity="0.7" x="35" y="21" width="35" height="1" rx="0.5"></rect>
            
            <rect fill="#FFFFFF" stroke="#E0E0E0" stroke-width="1" x="95" y="0" width="85" height="30" rx="0"></rect>
            <rect fill="#F5F5F5" x="95" y="0" width="30" height="30"></rect>
            <rect fill="#1A237E" x="130" y="5" width="40" height="2" rx="1"></rect>
            <rect fill="#C2185B" x="130" y="10" width="20" height="2" rx="1"></rect>
            <rect fill="#555555" opacity="0.7" x="130" y="15" width="45" height="1" rx="0.5"></rect>
            <rect fill="#555555" opacity="0.7" x="130" y="18" width="45" height="1" rx="0.5"></rect>
            <rect fill="#555555" opacity="0.7" x="130" y="21" width="35" height="1" rx="0.5"></rect>
        </g>
        <rect fill="#E0E0E0" x="10" y="130" width="180" height="1"></rect>
        <rect fill="#999999" x="90" y="134" width="20" height="1" rx="0.5"></rect>
        <rect fill="#999999" x="175" y="134" width="5" height="1" rx="0.5"></rect>
    </g>
</svg>