<?xml version="1.0" encoding="UTF-8"?>
<svg width="200px" height="140px" viewBox="0 0 200 140" version="1.1" xmlns="http://www.w3.org/2000/svg" xmlns:xlink="http://www.w3.org/1999/xlink">
    <title>Seasonal Promotion Template</title>
    <g stroke="none" stroke-width="1" fill="none" fill-rule="evenodd">
        <rect stroke="#E0E0E0" stroke-width="2" fill="#FFFFFF" x="1" y="1" width="198" height="138" rx="6"></rect>
        <rect fill="#2E4053" x="10" y="10" width="180" height="30" rx="4"></rect>
        <rect fill="#FFFFFF" x="15" y="20" width="170" height="10" rx="2" opacity="0.7"></rect>
        <rect fill="#E74C3C" x="10" y="45" width="180" height="15" rx="2"></rect>
        <g transform="translate(10, 65)">
            <rect fill="#F9E79F" x="0" y="0" width="180" height="15" rx="2"></rect>
            <rect fill="#F1C40F" x="0" y="0" width="5" height="15"></rect>
        </g>
        <g transform="translate(10, 85)">
            <rect fill="#FFFFFF" x="0" y="0" width="85" height="45" rx="4" stroke="#E0E0E0" stroke-width="1"></rect>
            <rect fill="#E74C3C" x="0" y="30" width="85" height="3"></rect>
            <rect fill="#E74C3C" x="60" y="5" width="20" height="10" rx="5"></rect>
            
            <rect fill="#FFFFFF" x="95" y="0" width="85" height="45" rx="4" stroke="#E0E0E0" stroke-width="1"></rect>
            <rect fill="#E74C3C" x="95" y="30" width="85" height="3"></rect>
            <rect fill="#E74C3C" x="155" y="5" width="20" height="10" rx="5"></rect>
        </g>
        <rect fill="#E0E0E0" x="70" y="135" width="60" height="1" rx="0.5"></rect>
    </g>
</svg>